<svg xmlns="http://www.w3.org/2000/svg" viewBox="0 0 2000 1000" preserveAspectRatio="xMidYMid meet">
  <defs>
    <style>
      .continent {
        fill: rgba(0, 255, 255, 0.15);
        stroke: rgba(0, 255, 255, 0.5);
        stroke-width: 1.5;
        filter: drop-shadow(0 0 10px rgba(0, 255, 255, 0.3));
      }
      .country {
        fill: rgba(0, 255, 255, 0.12);
        stroke: rgba(0, 255, 255, 0.4);
        stroke-width: 0.8;
      }
    </style>
  </defs>

  <!-- AMÉRIQUE DU NORD -->

  <!-- Canada -->
  <path class="country" d="M 80,180 L 90,175 L 100,170 L 115,165 L 130,162 L 145,160 L 160,161 L 175,163 L 190,166 L 205,170 L 220,175 L 235,182 L 250,190 L 265,200 L 278,210 L 290,220 L 300,232 L 308,245 L 312,258 L 315,270 L 316,282 L 315,294 L 312,305 L 308,315 L 302,324 L 295,332 L 287,338 L 278,343 L 268,346 L 258,348 L 248,348 L 238,346 L 228,342 L 218,337 L 208,330 L 198,322 L 188,313 L 178,303 L 168,292 L 158,280 L 148,268 L 138,255 L 128,242 L 118,230 L 108,218 L 98,207 L 88,196 L 80,186 Z"/>

  <!-- USA -->
  <path class="country" d="M 95,260 L 110,258 L 125,257 L 140,258 L 155,260 L 170,263 L 185,268 L 200,274 L 215,281 L 230,290 L 245,300 L 260,312 L 273,325 L 284,338 L 293,351 L 300,364 L 305,377 L 308,390 L 309,403 L 308,415 L 305,427 L 300,438 L 293,448 L 284,457 L 273,465 L 260,471 L 245,475 L 230,477 L 215,477 L 200,475 L 185,471 L 170,465 L 155,457 L 140,448 L 125,437 L 110,425 L 100,412 L 92,398 L 86,384 L 82,370 L 80,356 L 80,342 L 82,328 L 85,314 L 89,300 L 93,286 L 95,272 Z"/>

  <!-- Alaska -->
  <path class="country" d="M 15,145 L 25,143 L 35,142 L 45,143 L 55,146 L 65,151 L 73,157 L 78,164 L 80,172 L 79,180 L 75,187 L 69,193 L 61,197 L 51,199 L 41,199 L 31,197 L 22,193 L 15,187 L 10,179 L 8,171 L 9,163 L 12,155 Z"/>

  <!-- Mexique -->
  <path class="country" d="M 140,405 L 155,403 L 170,402 L 185,403 L 200,406 L 215,411 L 228,418 L 238,427 L 245,438 L 249,450 L 250,462 L 248,474 L 243,485 L 235,495 L 225,503 L 213,509 L 200,513 L 186,515 L 172,515 L 158,513 L 145,509 L 133,503 L 123,495 L 115,485 L 110,474 L 108,462 L 109,450 L 112,438 L 117,427 L 124,417 L 132,409 Z"/>

  <!-- AMÉRIQUE CENTRALE -->
  <path class="country" d="M 185,515 L 195,514 L 205,515 L 215,518 L 223,523 L 229,530 L 232,538 L 232,546 L 229,554 L 223,561 L 215,566 L 205,569 L 195,570 L 185,569 L 175,566 L 167,561 L 161,554 L 158,546 L 158,538 L 161,530 L 167,523 L 175,518 Z"/>

  <!-- AMÉRIQUE DU SUD -->

  <!-- Brésil -->
  <path class="country" d="M 230,575 L 248,573 L 266,574 L 283,578 L 298,585 L 310,595 L 319,607 L 325,621 L 328,636 L 328,651 L 325,666 L 319,680 L 310,693 L 298,704 L 283,713 L 266,719 L 248,722 L 230,722 L 212,719 L 195,713 L 180,704 L 168,693 L 159,680 L 153,666 L 150,651 L 150,636 L 153,621 L 159,607 L 168,595 L 180,585 L 195,578 L 212,574 Z"/>

  <!-- Argentine -->
  <path class="country" d="M 210,725 L 225,724 L 240,725 L 253,729 L 264,735 L 272,744 L 277,755 L 279,767 L 279,780 L 277,793 L 272,806 L 264,818 L 253,828 L 240,836 L 225,841 L 210,843 L 195,841 L 181,836 L 169,828 L 159,818 L 152,806 L 148,793 L 146,780 L 146,767 L 148,755 L 152,744 L 159,735 L 169,729 L 181,725 L 195,724 Z"/>

  <!-- EUROPE -->

  <!-- Scandinavie -->
  <path class="country" d="M 920,140 L 935,138 L 950,139 L 963,143 L 973,150 L 980,159 L 983,170 L 983,181 L 980,192 L 973,201 L 963,208 L 950,212 L 935,213 L 920,211 L 907,206 L 897,199 L 890,190 L 886,179 L 885,168 L 888,157 L 894,148 L 903,142 L 912,139 Z"/>

  <!-- UK & Irlande -->
  <path class="country" d="M 860,210 L 873,208 L 886,209 L 897,213 L 905,220 L 910,229 L 911,239 L 909,249 L 903,258 L 894,265 L 883,269 L 871,270 L 859,268 L 848,263 L 840,256 L 835,247 L 833,237 L 834,227 L 838,218 L 845,211 Z"/>

  <!-- France -->
  <path class="country" d="M 880,260 L 895,258 L 910,259 L 923,263 L 933,270 L 940,279 L 943,290 L 943,301 L 940,312 L 933,321 L 923,328 L 910,332 L 895,333 L 880,331 L 867,326 L 857,319 L 850,310 L 846,299 L 845,288 L 848,277 L 854,268 L 863,262 Z"/>

  <!-- Espagne & Portugal -->
  <path class="country" d="M 850,315 L 865,313 L 880,314 L 893,318 L 903,325 L 910,334 L 913,345 L 913,356 L 910,367 L 903,376 L 893,383 L 880,387 L 865,388 L 850,386 L 837,381 L 827,374 L 820,365 L 816,354 L 815,343 L 818,332 L 824,323 L 833,317 Z"/>

  <!-- Allemagne -->
  <path class="country" d="M 945,250 L 960,248 L 975,249 L 988,253 L 998,260 L 1005,269 L 1008,280 L 1008,291 L 1005,302 L 998,311 L 988,318 L 975,322 L 960,323 L 945,321 L 932,316 L 922,309 L 915,300 L 911,289 L 910,278 L 913,267 L 919,258 L 928,252 Z"/>

  <!-- Italie -->
  <path class="country" d="M 945,325 L 958,323 L 971,324 L 982,328 L 990,335 L 995,344 L 997,355 L 997,366 L 995,377 L 990,386 L 982,393 L 971,397 L 958,398 L 945,396 L 934,391 L 926,384 L 921,375 L 918,364 L 918,353 L 921,342 L 926,333 L 934,327 Z"/>

  <!-- Europe de l'Est -->
  <path class="country" d="M 1010,220 L 1030,218 L 1050,220 L 1068,225 L 1083,233 L 1095,244 L 1103,257 L 1107,271 L 1107,286 L 1103,301 L 1095,314 L 1083,325 L 1068,333 L 1050,338 L 1030,340 L 1010,338 L 992,333 L 977,325 L 965,314 L 957,301 L 953,286 L 953,271 L 957,257 L 965,244 L 977,233 L 992,225 Z"/>

  <!-- Russie Européenne -->
  <path class="country" d="M 1110,185 L 1135,183 L 1160,184 L 1183,189 L 1203,197 L 1220,208 L 1233,222 L 1242,238 L 1246,255 L 1246,273 L 1242,291 L 1233,307 L 1220,321 L 1203,332 L 1183,340 L 1160,345 L 1135,346 L 1110,344 L 1087,339 L 1067,331 L 1051,320 L 1039,306 L 1031,290 L 1027,273 L 1027,255 L 1031,238 L 1039,222 L 1051,209 L 1067,198 L 1087,190 Z"/>

  <!-- AFRIQUE -->

  <!-- Afrique du Nord (Maghreb) -->
  <path class="country" d="M 900,385 L 920,383 L 940,384 L 958,388 L 974,395 L 987,405 L 997,417 L 1003,431 L 1006,446 L 1006,461 L 1003,476 L 997,490 L 987,502 L 974,512 L 958,519 L 940,523 L 920,524 L 900,522 L 882,517 L 867,509 L 855,499 L 846,487 L 841,473 L 838,458 L 838,443 L 841,428 L 846,414 L 855,402 L 867,392 L 882,386 Z"/>

  <!-- Afrique de l'Ouest -->
  <path class="country" d="M 860,465 L 878,463 L 896,464 L 912,468 L 925,475 L 935,485 L 941,497 L 944,510 L 944,523 L 941,536 L 935,548 L 925,558 L 912,565 L 896,569 L 878,570 L 860,568 L 844,563 L 831,555 L 821,545 L 814,533 L 810,520 L 809,507 L 812,494 L 818,482 L 827,472 L 839,465 Z"/>

  <!-- Afrique Centrale -->
  <path class="country" d="M 935,525 L 953,523 L 971,524 L 987,528 L 1000,535 L 1010,545 L 1017,557 L 1020,570 L 1020,583 L 1017,596 L 1010,608 L 1000,618 L 987,625 L 971,629 L 953,630 L 935,628 L 919,623 L 906,615 L 896,605 L 889,593 L 885,580 L 884,567 L 887,554 L 893,542 L 902,532 L 914,525 Z"/>

  <!-- Afrique de l'Est -->
  <path class="country" d="M 1025,465 L 1043,463 L 1061,464 L 1077,468 L 1090,475 L 1100,485 L 1106,497 L 1109,510 L 1109,523 L 1106,536 L 1100,548 L 1090,558 L 1077,565 L 1061,569 L 1043,570 L 1025,568 L 1009,563 L 996,555 L 986,545 L 979,533 L 975,520 L 974,507 L 977,494 L 983,482 L 992,472 L 1004,465 Z"/>

  <!-- Afrique du Sud -->
  <path class="country" d="M 955,695 L 973,693 L 991,694 L 1007,698 L 1020,705 L 1030,715 L 1036,727 L 1039,740 L 1039,753 L 1036,766 L 1030,778 L 1020,788 L 1007,795 L 991,799 L 973,800 L 955,798 L 939,793 L 926,785 L 916,775 L 909,763 L 905,750 L 904,737 L 907,724 L 913,712 L 922,702 L 934,695 Z"/>

  <!-- Madagascar -->
  <path class="country" d="M 1085,680 L 1098,679 L 1111,681 L 1122,686 L 1130,694 L 1135,704 L 1137,715 L 1137,726 L 1135,737 L 1130,747 L 1122,755 L 1111,760 L 1098,762 L 1085,761 L 1073,757 L 1064,750 L 1058,741 L 1055,730 L 1055,719 L 1058,708 L 1064,699 L 1073,692 Z"/>

  <!-- ASIE -->

  <!-- Moyen-Orient -->
  <path class="country" d="M 1050,355 L 1070,353 L 1090,355 L 1108,360 L 1123,368 L 1135,379 L 1143,392 L 1147,407 L 1147,422 L 1143,437 L 1135,450 L 1123,461 L 1108,469 L 1090,474 L 1070,476 L 1050,474 L 1032,469 L 1017,461 L 1005,450 L 997,437 L 993,422 L 992,407 L 995,392 L 1001,379 L 1011,368 L 1025,360 Z"/>

  <!-- Péninsule Arabique -->
  <path class="country" d="M 1080,455 L 1098,453 L 1116,454 L 1132,458 L 1145,465 L 1155,475 L 1161,487 L 1164,500 L 1164,513 L 1161,526 L 1155,538 L 1145,548 L 1132,555 L 1116,559 L 1098,560 L 1080,558 L 1064,553 L 1051,545 L 1041,535 L 1034,523 L 1030,510 L 1029,497 L 1032,484 L 1038,472 L 1047,462 L 1059,455 Z"/>

  <!-- Russie Asiatique (Sibérie) -->
  <path class="country" d="M 1250,150 L 1285,148 L 1320,150 L 1353,155 L 1383,163 L 1410,174 L 1433,188 L 1452,205 L 1466,224 L 1476,245 L 1481,267 L 1481,290 L 1476,313 L 1466,334 L 1452,353 L 1433,369 L 1410,383 L 1383,394 L 1353,402 L 1320,407 L 1285,409 L 1250,407 L 1217,402 L 1187,394 L 1160,383 L 1137,369 L 1118,353 L 1104,334 L 1094,313 L 1089,290 L 1089,267 L 1094,245 L 1104,224 L 1118,205 L 1137,188 L 1160,174 L 1187,163 L 1217,155 Z"/>

  <!-- Kazakhstan & Asie Centrale -->
  <path class="country" d="M 1150,285 L 1170,283 L 1190,284 L 1208,288 L 1223,295 L 1235,305 L 1243,317 L 1247,331 L 1247,345 L 1243,359 L 1235,371 L 1223,381 L 1208,388 L 1190,392 L 1170,393 L 1150,391 L 1132,386 L 1117,378 L 1105,368 L 1097,356 L 1093,342 L 1092,328 L 1095,314 L 1101,302 L 1110,292 L 1122,285 Z"/>

  <!-- Inde -->
  <path class="country" d="M 1280,415 L 1302,413 L 1324,415 L 1344,420 L 1361,428 L 1375,439 L 1385,453 L 1391,469 L 1393,486 L 1391,503 L 1385,519 L 1375,533 L 1361,544 L 1344,552 L 1324,557 L 1302,559 L 1280,557 L 1260,552 L 1243,544 L 1229,533 L 1219,519 L 1213,503 L 1211,486 L 1213,469 L 1219,453 L 1229,439 L 1243,428 L 1260,420 Z"/>

  <!-- Asie du Sud-Est -->
  <path class="country" d="M 1395,490 L 1413,488 L 1431,490 L 1447,495 L 1460,503 L 1470,514 L 1476,527 L 1479,541 L 1479,555 L 1476,569 L 1470,582 L 1460,593 L 1447,601 L 1431,606 L 1413,608 L 1395,606 L 1379,601 L 1366,593 L 1356,582 L 1350,569 L 1347,555 L 1347,541 L 1350,527 L 1356,514 L 1366,503 L 1379,495 Z"/>

  <!-- Indonésie -->
  <path class="country" d="M 1420,610 L 1438,609 L 1456,611 L 1472,616 L 1485,624 L 1495,635 L 1501,648 L 1504,662 L 1504,676 L 1501,690 L 1495,703 L 1485,714 L 1472,722 L 1456,727 L 1438,729 L 1420,727 L 1404,722 L 1391,714 L 1381,703 L 1375,690 L 1372,676 L 1372,662 L 1375,648 L 1381,635 L 1391,624 L 1404,616 Z"/>

  <!-- Chine -->
  <path class="country" d="M 1400,260 L 1428,258 L 1456,261 L 1482,267 L 1505,276 L 1525,288 L 1541,303 L 1553,321 L 1561,341 L 1564,362 L 1563,383 L 1557,403 L 1547,422 L 1533,439 L 1515,453 L 1494,464 L 1470,472 L 1445,477 L 1419,479 L 1393,477 L 1368,472 L 1345,464 L 1325,453 L 1308,439 L 1295,422 L 1286,403 L 1281,383 L 1280,362 L 1283,341 L 1290,321 L 1301,303 L 1316,288 L 1334,276 L 1355,267 L 1378,261 Z"/>

  <!-- Mongolie -->
  <path class="country" d="M 1430,235 L 1450,233 L 1470,235 L 1488,240 L 1503,248 L 1515,259 L 1523,272 L 1527,287 L 1527,302 L 1523,317 L 1515,330 L 1503,341 L 1488,349 L 1470,354 L 1450,356 L 1430,354 L 1412,349 L 1397,341 L 1385,330 L 1377,317 L 1373,302 L 1372,287 L 1375,272 L 1381,259 L 1391,248 L 1404,240 Z"/>

  <!-- Corée -->
  <path class="country" d="M 1625,310 L 1638,309 L 1651,311 L 1662,316 L 1670,323 L 1675,332 L 1677,343 L 1677,354 L 1675,365 L 1670,374 L 1662,381 L 1651,386 L 1638,388 L 1625,387 L 1613,383 L 1604,376 L 1598,367 L 1595,356 L 1595,345 L 1598,334 L 1604,325 L 1613,318 Z"/>

  <!-- Japon -->
  <path class="country" d="M 1690,295 L 1705,294 L 1720,296 L 1733,301 L 1743,309 L 1750,319 L 1754,331 L 1755,344 L 1753,357 L 1748,369 L 1740,379 L 1729,387 L 1716,392 L 1702,394 L 1688,393 L 1675,389 L 1664,382 L 1656,373 L 1651,362 L 1649,350 L 1650,337 L 1654,325 L 1661,314 L 1671,305 L 1682,299 Z"/>

  <!-- OCÉANIE -->

  <!-- Australie -->
  <path class="country" d="M 1510,665 L 1538,663 L 1566,665 L 1592,670 L 1615,678 L 1635,689 L 1651,703 L 1663,720 L 1671,739 L 1675,759 L 1675,779 L 1671,799 L 1663,818 L 1651,835 L 1635,849 L 1615,860 L 1592,868 L 1566,873 L 1538,875 L 1510,873 L 1484,868 L 1461,860 L 1441,849 L 1425,835 L 1413,818 L 1405,799 L 1401,779 L 1401,759 L 1405,739 L 1413,720 L 1425,703 L 1441,689 L 1461,678 L 1484,670 Z"/>

  <!-- Nouvelle-Zélande (Nord) -->
  <path class="country" d="M 1755,790 L 1768,789 L 1781,791 L 1792,796 L 1800,803 L 1805,812 L 1807,823 L 1807,834 L 1805,845 L 1800,854 L 1792,861 L 1781,866 L 1768,868 L 1755,867 L 1743,863 L 1734,856 L 1728,847 L 1725,836 L 1725,825 L 1728,814 L 1734,805 L 1743,798 Z"/>

  <!-- Nouvelle-Zélande (Sud) -->
  <path class="country" d="M 1745,870 L 1758,869 L 1771,871 L 1782,876 L 1790,883 L 1795,892 L 1797,903 L 1797,914 L 1795,925 L 1790,934 L 1782,941 L 1771,946 L 1758,948 L 1745,947 L 1733,943 L 1724,936 L 1718,927 L 1715,916 L 1715,905 L 1718,894 L 1724,885 L 1733,878 Z"/>

  <!-- Lignes de latitude (équateur, tropiques) -->
  <line x1="0" y1="250" x2="2000" y2="250" stroke="rgba(0, 255, 255, 0.08)" stroke-width="1" stroke-dasharray="5,5"/>
  <line x1="0" y1="500" x2="2000" y2="500" stroke="rgba(0, 255, 255, 0.12)" stroke-width="1.5"/>
  <line x1="0" y1="750" x2="2000" y2="750" stroke="rgba(0, 255, 255, 0.08)" stroke-width="1" stroke-dasharray="5,5"/>

  <!-- Lignes de longitude -->
  <line x1="500" y1="0" x2="500" y2="1000" stroke="rgba(0, 255, 255, 0.08)" stroke-width="1" stroke-dasharray="5,5"/>
  <line x1="1000" y1="0" x2="1000" y2="1000" stroke="rgba(0, 255, 255, 0.12)" stroke-width="1.5"/>
  <line x1="1500" y1="0" x2="1500" y2="1000" stroke="rgba(0, 255, 255, 0.08)" stroke-width="1" stroke-dasharray="5,5"/>
</svg>
